<?xml version="1.0" encoding="UTF-8"?>
<svg width="103px" height="102px" viewBox="0 0 103 102" version="1.1" xmlns="http://www.w3.org/2000/svg" xmlns:xlink="http://www.w3.org/1999/xlink">
    <!-- Generator: Sketch 55.1 (78136) - https://sketchapp.com -->
    <title>Shape</title>
    <desc>Created with Sketch.</desc>
    <g id="Page-1" stroke="none" stroke-width="1" fill="none" fill-rule="evenodd">
        <g id="eyedropper" transform="translate(-1398.000000, -1038.000000)" fill="#FFFFFF" fill-rule="nonzero">
            <g id="Symbols" transform="translate(496.000000, 619.000000)">
                <g id="Regular-M" transform="translate(902.660000, 419.000000)">
                    <path d="M76.793,51.2324 L78.1602,49.7676 C80.6016,47.2773 80.6016,44.3477 78.1113,41.7598 L76.6465,40.3438 C84.1172,33.6543 92.418,32.7266 97.545,27.5508 C104.771,20.1289 102.428,9.9238 97.35,4.7969 C92.223,-0.2812 82.0176,-2.625 74.6445,4.6016 C69.4199,9.7773 68.4922,18.0293 61.8027,25.5 L60.3867,24.0352 C57.7988,21.5449 54.8691,21.5938 52.4277,23.9863 L50.9141,25.4023 C47.9844,28.2832 48.4727,30.8711 51.0605,33.3613 L53.1113,35.4609 L16.2461,72.3262 C1.1582,87.414062 8.4336,85.11914 0.2305,96.69141 L4.5762,101.3301 C15.8066,93.17578 14.293,101.1348 29.5762,85.90039 L66.6855,49.0352 L68.7852,51.0859 C71.3242,53.6738 73.8633,54.2109 76.793,51.2324 Z M15.2695,87.121094 C13.4141,85.2168 13.8047,83.36133 15.7578,81.4082 L57.3105,39.6602 L62.6328,44.9336 L20.8848,86.68164 C19.1758,88.390625 16.9297,88.927734 15.2695,87.121094 Z" id="Shape"></path>
                </g>
            </g>
        </g>
    </g>
</svg>