<svg width="72" height="70" viewBox="0 0 72 70" fill="none" xmlns="http://www.w3.org/2000/svg">
<path d="M0.933617 0.7771C0.933617 0.7771 0 1.54691 0 2.75364V66.8585C0 68.5754 1.42581 69.9464 3.18464 69.9464H68.6034C68.6034 69.9464 69.8796 69.9464 70.8583 69.0366L46.144 44.9109C46.0458 45.2315 45.7414 45.4651 45.3811 45.4651H23.0886C22.6489 45.4651 22.2925 45.1172 22.2925 44.6879V22.9268C22.2925 22.5749 22.532 22.2777 22.8606 22.182L0.933617 0.7771Z" fill="white" fill-opacity="0.2"/>
<path d="M70.7206 69.1693C70.7206 69.1693 71.6543 68.3995 71.6543 67.1928V3.08786C71.6543 1.37096 70.2284 0 68.4696 0H3.05095C3.05095 0 1.77481 -1.11177e-06 0.796143 0.909736L22.6718 22.2646C22.7931 22.1917 22.9358 22.1497 23.0886 22.1497H45.381C45.8207 22.1497 46.1772 22.4977 46.1772 22.9269V44.688C46.1772 44.8373 46.1341 44.9768 46.0593 45.0952L70.7206 69.1693Z" fill="white"/>
</svg>
